<svg width="40" height="40" viewBox="0 0 40 40" fill="none" xmlns="http://www.w3.org/2000/svg">
<g clip-path="url(#clip0_1_754)">
<rect x="40" y="40" width="40" height="40" rx="5" transform="rotate(180 40 40)" fill="#FBFBFB"/>
<path d="M40 30C40 35.5228 35.5228 40 30 40L10 40C4.47715 40 -3.91405e-07 35.5229 -8.74228e-07 30L-2.62268e-06 10C-3.10551e-06 4.47716 4.47715 3.10551e-06 10 2.62268e-06L30 8.74228e-07C35.5228 3.91405e-07 40 4.47715 40 10L40 30Z" fill="#FBFBFB"/>
<path d="M24 29L14 20.5L24 12" stroke="#02963A" stroke-width="2.5" stroke-linecap="round" stroke-linejoin="round"/>
</g>
<defs>
<clipPath id="clip0_1_754">
<rect x="40" y="40" width="40" height="40" rx="5" transform="rotate(180 40 40)" fill="white"/>
</clipPath>
</defs>
</svg>
