<svg width="20" height="20" viewBox="0 0 20 20" fill="none" xmlns="http://www.w3.org/2000/svg">
<path d="M16.4808 13.5009H16.4805C14.9421 13.5 13.404 13.5002 11.8656 13.5003C11.2504 13.5004 10.6352 13.5005 10.02 13.5005L16.4808 13.5009ZM16.4808 13.5009C16.6747 13.5009 16.7981 13.5514 16.8688 13.605C16.9341 13.6545 16.9814 13.7259 16.9975 13.8365C17.0036 13.8797 16.998 13.9121 16.9858 13.9402L17.444 14.1401L16.986 13.9396C16.3967 15.286 15.6027 16.4508 14.3594 17.3055L14.3594 17.3056M16.4808 13.5009L14.3594 17.3056M14.3594 17.3056C13.2839 18.0452 12.0409 18.3991 10.6701 18.4786L10.6701 18.4786M14.3594 17.3056L10.6701 18.4786M10.6701 18.4786C9.41671 18.5515 8.21211 18.4463 7.06961 18.0337M10.6701 18.4786L3.69131 15.245M3.69131 15.245L3.69139 15.2451C4.49899 16.5214 5.57217 17.4929 7.06961 18.0337M3.69131 15.245C3.44441 14.8551 3.23011 14.4496 3.0436 14.0299L3.04354 14.0298M3.69131 15.245L3.04354 14.0298M7.06961 18.0337L6.89975 18.504L7.06961 18.0337ZM3.04354 14.0298C2.96918 13.8626 3.00147 13.7474 3.05435 13.6754C3.1126 13.596 3.24783 13.5019 3.49329 13.5017L3.4934 13.5017M3.04354 14.0298L3.4934 13.5017M3.4934 13.5017C5.08862 13.4996 6.68345 13.4999 8.27883 13.5002M3.4934 13.5017L8.27883 13.5002M8.27883 13.5002C8.85898 13.5003 9.4392 13.5005 10.0195 13.5005L8.27883 13.5002Z" stroke="#232323"/>
<path d="M1.57141 6.50352L1.57139 6.50347C1.48088 6.28339 1.49544 6.17473 1.51395 6.12321C1.5327 6.07106 1.59197 5.97606 1.80513 5.86065C2.64168 5.40868 3.47833 4.9568 4.315 4.50491C6.11925 3.53042 7.9236 2.55588 9.72727 1.58024C9.92309 1.47432 10.0728 1.4749 10.2527 1.57234L10.2531 1.57256C11.0794 2.01895 11.9056 2.46508 12.7318 2.91118C14.5771 3.90758 16.4221 4.90381 18.2658 5.90228C18.4012 5.97564 18.459 6.05759 18.4824 6.12158C18.5056 6.1848 18.5131 6.27914 18.4589 6.41221C17.9126 7.75015 17.3618 9.08638 16.8108 10.4234L16.6932 10.7087L16.6931 10.7088C16.6412 10.8349 16.5796 10.8945 16.5202 10.9293C16.4541 10.9681 16.3485 11.0003 16.1769 11H16.1768C14.6258 10.9975 13.0747 10.9978 11.5241 10.9982C11.0077 10.9983 10.4912 10.9984 9.9749 10.9984H9.96299H9.95109H9.93918H9.92727H9.91537H9.90346H9.89155H9.87965H9.86774H9.85584H9.84393H9.83202H9.82012H9.80821H9.79631H9.7844H9.77249H9.76059H9.74868H9.73677H9.72487H9.71296H9.70106H9.68915H9.67724H9.66534H9.65343H9.64153H9.62962H9.61771H9.60581H9.5939H9.582H9.57009H9.55818H9.54628H9.53437H9.52246H9.51056H9.49865H9.48675H9.47484H9.46293H9.45103H9.43912H9.42721H9.41531H9.4034H9.3915H9.37959H9.36768H9.35578H9.34387H9.33197H9.32006H9.30815H9.29625H9.28434H9.27244H9.26053H9.24862H9.23672H9.22481H9.2129H9.201H9.18909H9.17719H9.16528H9.15337H9.14147H9.12956H9.11765H9.10575H9.09384H9.08194H9.07003H9.05812H9.04622H9.03431H9.02241H9.0105H8.99859H8.98669H8.97478H8.96288H8.95097H8.93906H8.92716H8.91525H8.90335H8.89144H8.87953H8.86763H8.85572H8.84381H8.83191H8.82H8.8081H8.79619H8.78428H8.77238H8.76047H8.74857H8.73666H8.72475H8.71285H8.70094H8.68904H8.67713H8.66522H8.65332H8.64141H8.62951H8.6176H8.60569H8.59379H8.58188H8.56997H8.55807H8.54616H8.53426H8.52235H8.51044H8.49854H8.48663H8.47473H8.46282H8.45091H8.43901H8.4271H8.4152H8.40329H8.39138H8.37948H8.36757H8.35567H8.34376H8.33185H8.31995H8.30804H8.29614H8.28423H8.27232H8.26042H8.24851H8.23661H8.2247H8.21279H8.20089H8.18898H8.17708H8.16517H8.15326H8.14136H8.12945H8.11755H8.10564H8.09374H8.08183H8.06992H8.05802H8.04611H8.03421H8.0223H8.01039H7.99849H7.98658H7.97468H7.96277H7.95086H7.93896H7.92705H7.91515H7.90324H7.89134H7.87943H7.86752H7.85562H7.84371H7.83181H7.8199H7.80799H7.79609H7.78418H7.77228H7.76037H7.74846H7.73656H7.72465H7.71275H7.70084H7.68894H7.67703H7.66512H7.65322H7.64131H7.62941H7.6175H7.60559H7.59369H7.58178H7.56988H7.55797H7.54607H7.53416H7.52225H7.51035H7.49844H7.48654H7.47463H7.46273H7.45082H7.43891H7.42701H7.4151H7.4032H7.39129H7.37938H7.36748H7.35557H7.34367H7.33176H7.31986H7.30795H7.29604H7.28414H7.27223H7.26033H7.24842H7.23652H7.22461H7.21271H7.2008H7.18889H7.17699H7.16508H7.15318H7.14127H7.12937H7.11746H7.10555H7.09365H7.08174H7.06984H7.05793H7.04603H7.03412H7.02222H7.01031H6.9984H6.9865H6.97459H6.96269H6.95078H6.93888H6.92697H6.91506H6.90316H6.89125H6.87935H6.86744H6.85554H6.84363H6.83173H6.81982H6.80792H6.79601H6.7841H6.7722H6.76029H6.74839H6.73648H6.72458H6.71267H6.70077H6.68886H6.67695H6.66505H6.65314H6.64124H6.62933H6.61743H6.60552H6.59362H6.58171H6.56981H6.5579H6.546H6.53409H6.52218H6.51028H6.49837H6.48647H6.47456H6.46266H6.45075H6.43885H6.42694H6.41504H6.40313H6.39123H6.37932H6.36741H6.35551H6.3436H6.3317H6.31979H6.30789H6.29598H6.28408H6.27217H6.26027H6.24836H6.23646H6.22455H6.21265H6.20074H6.18884H6.17693H6.16503H6.15312H6.14122H6.12931H6.1174H6.1055H6.09359H6.08169H6.06978H6.05788H6.04597H6.03407H6.02216H6.01026H5.99835H5.98645H5.97454H5.96264H5.95073H5.93883H5.92692H5.91502H5.90311H5.89121H5.8793H5.8674H5.85549H5.84359H5.83168H5.81978H5.80787H5.79597H5.78406H5.77216H5.76025H5.74835H5.73644H5.72454H5.71263H5.70073H5.68882H5.67692H5.66501H5.65311H5.6412H5.6293H5.61739H5.60549H5.59358H5.58168H5.56977H5.55787H5.54596H5.53406H5.52215H5.51025H5.49834H5.48644H5.47453H5.46263H5.45072H5.43882H5.42692H5.41501H5.40311H5.3912H5.3793H5.36739H5.35549H5.34358H5.33168H5.31977H5.30787H5.29596H5.28406H5.27215H5.26025H5.24834H5.23644H5.22453H5.21263H5.20073H5.18882H5.17692H5.16501H5.15311H5.1412H5.1293H5.11739H5.10549H5.09358H5.08168H5.06977H5.05787H5.04597H5.03406H5.02216H5.01025H4.99835H4.98644H4.97454H4.96263H4.95073H4.93882H4.92692H4.91502H4.90311H4.89121H4.8793H4.8674H4.85549H4.84359H4.83168H4.81978H4.80788H4.79597H4.78407H4.77216H4.76026H4.74835H4.73645H4.72455H4.71264H4.70074H4.68883H4.67693H4.66502H4.65312H4.64122H4.62931H4.61741H4.6055H4.5936H4.58169H4.56979H4.55789H4.54598H4.53408H4.52217H4.51027H4.49836H4.48646H4.47456H4.46265H4.45075H4.43884H4.42694H4.41504H4.40313H4.39123H4.37932H4.36742H4.35551H4.34361H4.33171H4.3198H4.3079H4.29599H4.28409H4.27219H4.26028H4.24838H4.23647H4.22457H4.21267H4.20076H4.18886H4.17695H4.16505H4.15315H4.14124H4.12934H4.11744H4.10553H4.09363H4.08172H4.06982H4.05792H4.04601H4.03411H4.0222H4.0103H3.9984H3.98649H3.97459H3.96269H3.95078H3.93888H3.92697H3.91507H3.90317H3.89126H3.87936C3.61098 10.9984 3.51294 10.9587 3.46629 10.928C3.4217 10.8986 3.35058 10.8292 3.25286 10.5919C2.69224 9.22923 2.13161 7.86617 1.57141 6.50352Z" stroke="#232323"/>
<path d="M9.80987 6.93467C9.82893 6.92314 9.84768 6.91138 9.86612 6.8994C9.87793 6.90905 9.88979 6.91853 9.9017 6.92785C9.89782 6.94045 9.89404 6.95312 9.89036 6.96586C9.87968 6.96612 9.86897 6.96647 9.85823 6.96691C9.81827 6.96853 9.77878 6.97131 9.73975 6.97522C9.76327 6.96223 9.78665 6.94872 9.80987 6.93467Z" stroke="#232323" stroke-width="2"/>
</svg>
