<svg width="20" height="20" viewBox="0 0 20 20" fill="none" xmlns="http://www.w3.org/2000/svg">
<path d="M8.1227 9.23582C8.61624 9.75403 9.29098 10.05 10 10.05C10.3505 10.05 10.697 9.97747 11.0195 9.83724C11.3418 9.69704 11.6331 9.49225 11.8773 9.23582C12.1215 8.97943 12.3139 8.67637 12.4449 8.34452C12.5758 8.0127 12.6429 7.65784 12.6429 7.3C12.6429 6.57831 12.37 5.88157 11.8773 5.36418C11.3838 4.84597 10.709 4.55 10 4.55C9.29098 4.55 8.61624 4.84597 8.1227 5.36418C7.62995 5.88157 7.35714 6.57831 7.35714 7.3C7.35714 8.02169 7.62995 8.71843 8.1227 9.23582ZM10 18.216C9.85299 18.0344 9.66897 17.8034 9.4581 17.5306C8.9018 16.8108 8.16077 15.8034 7.42064 14.6516C6.67965 13.4984 5.94521 12.2092 5.39739 10.9253C4.84697 9.63522 4.5 8.38488 4.5 7.3C4.5 5.75409 5.0851 4.2761 6.11943 3.19005C7.15297 2.10484 8.5494 1.5 10 1.5C11.4506 1.5 12.847 2.10484 13.8806 3.19005C14.9149 4.2761 15.5 5.75409 15.5 7.3C15.5 8.38488 15.153 9.63522 14.6026 10.9253C14.0548 12.2092 13.3203 13.4984 12.5794 14.6516C11.8392 15.8034 11.0982 16.8108 10.5419 17.5306C10.331 17.8034 10.147 18.0344 10 18.216Z" stroke="#232323"/>
</svg>
