<svg width="259" height="52" viewBox="0 0 259 52" fill="none" xmlns="http://www.w3.org/2000/svg">
<g clip-path="url(#clip0_386_119)">
<g clip-path="url(#clip1_386_119)">
<path d="M107.127 27.3241C107.127 27.3241 111.452 2.17981 73.8245 2.17981C73.8245 2.17981 105.397 28.1913 107.126 27.3241H107.127Z" fill="url(#paint0_linear_386_119)"/>
<path d="M73.8245 2.17981C73.8245 2.17981 77.7165 16.4863 80.744 21.6893C80.744 21.6893 89.3944 35.5623 104.098 31.2264L110.153 35.9958L111.45 34.2615C111.45 34.2615 79.4473 6.08208 73.8245 2.17981Z" fill="url(#paint1_linear_386_119)"/>
<path d="M19.0516 24.1034C20.3064 25.2884 20.1952 27.3461 18.7981 28.3566C16.7062 29.8686 14.3662 30.6054 11.9551 30.6035C5.32191 30.6017 -0.00364577 25.4152 1.87267e-06 19.0455C0.00364951 12.404 5.30002 7.56286 11.9679 7.56653C15.8143 7.56837 19.1665 9.23106 21.211 12.1798L18.986 13.9068C16.9761 11.399 14.5067 10.5153 12.1065 10.5153C6.91957 10.5116 3.07131 14.1695 3.06767 19.0474C3.06402 24.0612 7.08554 27.6548 11.9551 27.6585C14.99 27.6603 17.4959 25.9002 19.0498 24.1053L19.0516 24.1034Z" fill="#229133"/>
<path d="M23.0586 22.9956L23.0641 21.2282C23.0677 15.9976 27.6947 12.4903 32.9966 12.494V15.2609C28.7252 15.259 26.2485 17.8771 26.2466 21.0831V22.9956H23.0604H23.0586Z" fill="#229133"/>
<path opacity="0.75" d="M23.0349 21.366V27.179C23.0349 28.8582 24.4374 30.2416 26.2266 30.328V21.3641H23.0349V21.366Z" fill="#8CC63F"/>
<path d="M39.8213 12.9698C44.3024 11.3972 49.5404 13.8278 51.149 18.4319C52.4476 22.1486 51.0377 26.2291 48.0704 28.4962C47.3628 29.0382 46.5657 29.4755 45.6958 29.7805C41.2147 31.3531 35.9858 28.8435 34.4009 24.3074C32.7923 19.7051 35.435 14.5076 39.8213 12.9698ZM44.6836 26.8795C45.0775 26.7417 45.4514 26.5616 45.8016 26.3485C48.0941 24.9486 49.3161 22.0659 48.3859 19.402C47.3135 16.3338 43.8245 14.8236 40.8371 15.8726C37.7859 16.9438 36.1189 20.3371 37.1676 23.3391C37.8844 25.3895 39.7501 26.7748 41.8037 27.1165C42.7558 27.2745 43.7479 27.2083 44.6854 26.8795H44.6836Z" fill="#229133"/>
<path d="M48.3715 28.3272C47.5033 29.0088 46.5203 29.5287 45.4789 29.8943L45.1013 30.0266C44.2715 30.3187 41.2622 30.62 40.9722 29.7896C40.6822 28.9592 40.9066 27.4471 41.7364 27.1569L42.4422 27.2469C43.449 27.2304 44.0435 27.0393 44.649 26.8096C45.2363 26.5855 45.2491 26.5983 46.6443 25.7698L47.1386 25.2572C47.9337 25.0385 49.0226 26.3044 49.2396 27.1017C49.3417 27.4802 48.8821 27.9248 48.3715 28.3272Z" fill="white"/>
<path opacity="0.75" d="M48.4955 28.2446C47.6273 28.9262 46.5203 29.5269 45.4789 29.8944L45.1013 30.0267C44.2715 30.3188 41.2622 30.6201 40.9722 29.7897C40.6822 28.9592 40.9066 27.4472 41.7364 27.1569L42.4422 27.2469C43.449 27.2304 44.0435 27.0393 44.649 26.8097C45.2363 26.5855 45.2491 26.5984 46.6443 25.7698L47.8298 24.3405C48.5356 24.4305 49.5569 25.4226 50.1734 26.2199C50.0494 26.479 49.8871 26.7178 49.6956 26.9328C49.2651 27.416 48.9113 27.9194 48.4955 28.2464V28.2446Z" fill="#8CC63F"/>
<path d="M54.3499 32.8781L54.3572 20.9104C54.3608 16.3596 58.3768 12.4904 63.2629 12.4922C68.1142 12.494 72.1266 16.4018 72.1248 20.9196C72.1211 25.4685 68.0704 29.5012 63.2537 29.4976C60.7405 29.4976 58.7872 28.3971 57.3902 26.9457L57.3847 32.8781H54.3499ZM69.0881 20.9177C69.09 17.8201 66.4746 15.3013 63.2629 15.2995C59.9125 15.2976 57.3975 17.8459 57.3956 20.9104C57.3938 24.1365 59.8706 26.6885 63.2574 26.6903C66.3998 26.6903 69.0881 24.0796 69.09 20.9177H69.0881Z" fill="#229133"/>
<path opacity="0.75" d="M54.3516 29.731V35.4117C54.3516 37.0211 55.7267 38.3255 57.421 38.3255L57.3864 29.731H54.3516Z" fill="#8CC63F"/>
<path d="M217.917 21.4285C217.917 16.6553 221.731 12.4922 226.416 12.4922C228.758 12.4922 230.766 13.3042 232.306 14.9284L230.498 16.8244C229.192 15.7073 227.888 15.4024 226.416 15.4024C223.305 15.4024 220.83 18.1104 220.83 21.4266C220.83 24.7428 223.239 27.3829 226.351 27.3829C228.158 27.3829 229.497 26.9089 230.633 25.8599C231.658 27.1808 231.137 29.1301 229.594 29.7474C228.57 30.1553 227.536 30.328 226.418 30.328C221.768 30.328 217.919 26.1648 217.919 21.4266L217.917 21.4285Z" fill="#229133"/>
<path d="M128.176 7.56665L119.409 30.6055C117.567 30.6055 116.316 28.6525 117.024 26.8796L124.722 7.56665" fill="#229133"/>
<path opacity="0.75" d="M128.176 7.56653L138.034 30.6054C135.685 30.6054 133.564 29.1448 132.643 26.8942L124.722 7.5647H128.176V7.56653Z" fill="#8CC63F"/>
<path d="M172.864 27.6548C171.445 29.3469 169.655 30.328 167.19 30.328C162.528 30.328 158.61 26.0969 158.61 21.3256C158.61 16.5543 162.528 12.4922 167.19 12.4922C171.851 12.4922 175.949 16.6737 175.949 21.445M172.864 21.3274C172.864 18.1123 170.432 15.4373 167.19 15.4373C163.947 15.4373 161.549 18.0774 161.549 21.3274C161.549 24.5775 164.182 27.3866 167.19 27.3866C170.465 27.3866 172.864 24.7134 172.864 21.3274Z" fill="#229133"/>
<path opacity="0.75" d="M175.948 21.4469V30.0819C174.186 30.0819 172.756 28.6507 172.756 26.8833V25.6046L172.86 24.1293C172.973 22.5327 174.355 21.3312 175.948 21.4469Z" fill="#8CC63F"/>
<path d="M248.878 27.6548C247.459 29.3469 245.67 30.328 243.204 30.328C238.543 30.328 234.625 26.0969 234.625 21.3256C234.625 16.5543 238.543 12.4922 243.204 12.4922C247.866 12.4922 251.964 16.6737 251.964 21.445M248.878 21.3274C248.878 18.1123 246.447 15.4373 243.204 15.4373C239.962 15.4373 237.563 18.0774 237.563 21.3274C237.563 24.5775 240.197 27.3866 243.204 27.3866C246.48 27.3866 248.878 24.7134 248.878 21.3274Z" fill="#229133"/>
<path opacity="0.75" d="M251.964 21.4469V30.0819C250.203 30.0819 248.773 28.6507 248.773 26.8833V25.6046L248.877 24.1293C248.99 22.5327 250.372 21.3312 251.964 21.4469Z" fill="#8CC63F"/>
<path d="M178.331 22.9093V8.12329H181.835V22.9093C181.094 22.9093 181.217 22.9167 180.334 22.9093C179.482 22.902 179.953 22.9093 178.33 22.9093H178.331Z" fill="#229133"/>
<path opacity="0.75" d="M178.331 21.9154V27.552C178.331 29.1798 179.872 30.5228 181.835 30.6055V21.9154H178.331Z" fill="#8CC63F"/>
<path d="M190.471 27.0155C188.074 23.2473 187.173 21.6471 184.41 15.7018C183.836 14.4654 184.673 13.0323 186.03 12.9331L191.884 23.905L190.469 27.0155H190.471Z" fill="#229133"/>
<path d="M197.011 12.4922C197.011 12.4922 199.15 14.899 198.485 16.3798L193.338 27.9727C192.448 27.6199 192.382 27.653 190.469 27.0136L197.009 12.4922H197.011Z" fill="#229133"/>
<path opacity="0.75" d="M190.837 33.7727L190.992 33.4531L194.609 25.1102L191.806 23.8462L186.739 35.6485L187.682 35.9462C187.682 35.9462 189.238 36.6186 190.837 33.7727Z" fill="#8CC63F"/>
<path d="M212.663 22.7384V14.5076C212.663 13.7562 213.27 13.1462 214.02 13.1462C214.895 13.1462 215.605 13.8572 215.605 14.7354V22.7384" fill="#229133"/>
<path opacity="0.75" d="M212.63 20.8956V27.1936C212.63 29.0125 213.923 30.5135 215.574 30.6054V20.8956H212.63Z" fill="#8CC63F"/>
<path d="M212.663 11.8896V11.0757C212.663 9.4461 213.98 8.12329 215.606 8.12329V8.93718C215.606 10.5668 214.29 11.8896 212.663 11.8896Z" fill="#229133"/>
<path d="M203.982 20.9398V22.5327C203.982 25.4777 206.398 27.9709 210.243 27.9709C210.243 29.742 208.556 31.0096 206.894 30.486C203.493 29.4113 201.021 26.6426 201.021 22.5327V8.12329H203.982V20.9398Z" fill="#229133"/>
<path opacity="0.75" d="M209.072 14.91C209.072 17.1496 206.606 18.9666 203.566 18.9666H201.034V14.91H209.072Z" fill="#8CC63F"/>
<path d="M156.371 30.3297C154.975 30.3297 153.969 29.4203 153.566 28.1342C153.445 27.7484 153.398 27.3405 153.398 26.9363V21.4945C153.398 18.2187 151.193 15.4941 148.229 15.4941C145.265 15.4941 143.199 18.1489 143.199 21.4247V30.3224H140.201V21.4247C140.201 16.5964 143.715 12.4939 148.229 12.4939C152.743 12.4939 156.371 16.3998 156.371 21.5386" fill="#229133"/>
<path d="M153.396 25.0918C153.403 24.9191 153.4 24.8916 153.396 24.717C153.387 24.2026 153.409 22.7126 154.613 22.009C155.13 21.7058 155.729 21.5221 156.373 21.568V30.3206C155.829 30.3206 155.355 30.192 154.944 29.966C154.208 29.56 153.722 28.8141 153.533 27.991C153.391 27.3737 153.343 26.3026 153.398 25.0918H153.396Z" fill="white"/>
<path opacity="0.75" d="M156.278 20.0394C156.557 22.4719 156.371 30.3205 156.371 30.3205C155.827 30.3205 155.353 30.1919 154.943 29.9659C154.206 29.5599 153.721 28.814 153.531 27.9909C153.389 27.3754 153.341 26.4936 153.396 25.2865C153.401 25.1781 153.452 23.1351 153.396 21.5367C153.378 20.9947 153.615 20.7063 153.983 20.4656C154.589 20.0688 155.326 19.9236 156.042 20.0118L156.278 20.0412V20.0394Z" fill="#8CC63F"/>
<path d="M68.4241 49.7732H67.897V43.5322L65.3181 47.846H65.2288L62.6499 43.5322V49.7732H62.1228V42.7495H62.7794L65.2689 46.9035L67.7584 42.7495H68.4259V49.7732H68.4241Z" fill="url(#paint2_linear_386_119)"/>
<path d="M74.9479 44.7577V49.7752H74.439V48.6416C74.0214 49.3949 73.2536 49.8854 72.2979 49.8854C70.8844 49.8854 69.719 48.7518 69.719 47.2673C69.719 45.7829 70.8844 44.6493 72.2979 44.6493C73.2536 44.6493 74.0214 45.1417 74.439 45.8931V44.7595H74.9479V44.7577ZM74.439 47.2655C74.439 46.0713 73.5235 45.1288 72.338 45.1288C71.1525 45.1288 70.226 46.0713 70.226 47.2655C70.226 48.4597 71.1525 49.4022 72.338 49.4022C73.5235 49.4022 74.439 48.4597 74.439 47.2655Z" fill="url(#paint3_linear_386_119)"/>
<path d="M80.6948 46.6536V49.7732H80.186V46.6536C80.186 45.7313 79.6589 45.1287 78.7215 45.1287C77.784 45.1287 76.9779 45.7717 76.9779 47.1258V49.775H76.48V44.7576H76.9779V45.7111C77.3572 44.9689 77.9938 44.6473 78.7616 44.6473C79.9471 44.6473 80.693 45.4392 80.693 46.6536H80.6948Z" fill="url(#paint4_linear_386_119)"/>
<path d="M86.9887 44.7577V49.7752H86.4798V48.6416C86.0622 49.3949 85.2943 49.8854 84.3386 49.8854C82.9252 49.8854 81.7598 48.7518 81.7598 47.2673C81.7598 45.7829 82.9252 44.6493 84.3386 44.6493C85.2943 44.6493 86.0622 45.1417 86.4798 45.8931V44.7595H86.9887V44.7577ZM86.4816 47.2655C86.4816 46.0713 85.5661 45.1288 84.3806 45.1288C83.1951 45.1288 82.2686 46.0713 82.2686 47.2655C82.2686 48.4597 83.1951 49.4022 84.3806 49.4022C85.5661 49.4022 86.4816 48.4597 86.4816 47.2655Z" fill="url(#paint5_linear_386_119)"/>
<path d="M93.4433 44.7576V49.5325C93.4433 51.0372 92.3381 51.8897 90.9629 51.8897C89.7975 51.8897 88.9713 51.4175 88.612 50.6863L89.0497 50.4364C89.3087 50.9674 89.8668 51.4102 90.9629 51.4102C92.2086 51.4102 92.9454 50.6771 92.9454 49.5344V48.6121C92.5369 49.3837 91.7708 49.8871 90.8042 49.8871C89.3798 49.8871 88.2253 48.7535 88.2253 47.2691C88.2253 45.7846 89.3798 44.651 90.8042 44.651C91.7708 44.651 92.5369 45.1526 92.9454 45.926V44.7631H93.4433V44.7576ZM92.9454 47.2654C92.9454 46.0712 92.0189 45.1287 90.8334 45.1287C89.6479 45.1287 88.7214 46.0712 88.7214 47.2654C88.7214 48.4596 89.6479 49.4021 90.8334 49.4021C92.0189 49.4021 92.9454 48.4596 92.9454 47.2654Z" fill="url(#paint6_linear_386_119)"/>
<path d="M99.6789 47.2856C99.6789 47.3664 99.6697 47.4454 99.6697 47.5263H95.1576C95.278 48.6598 96.1334 49.4021 97.2696 49.4021C98.0867 49.4021 98.7031 49.0218 98.9931 48.489L99.4308 48.7499C99.0223 49.4315 98.2453 49.8834 97.2587 49.8834C95.7248 49.8834 94.6396 48.7793 94.6396 47.2654C94.6396 45.7515 95.6956 44.6473 97.2185 44.6473C98.7414 44.6473 99.6789 45.9114 99.6789 47.2856ZM95.1558 47.0339H99.1591C99.0496 45.8103 98.1924 45.1269 97.2167 45.1269C96.0805 45.1269 95.2543 45.9187 95.154 47.0339H95.1558Z" fill="url(#paint7_linear_386_119)"/>
<path d="M117.206 49.7732H116.679V43.5322L114.1 47.846H114.01L111.432 43.5322V49.7732H110.905V42.7495H111.561L114.051 46.9035L116.54 42.7495H117.208V49.7732H117.206Z" fill="black"/>
<path d="M118.501 47.2654C118.501 45.7809 119.666 44.6473 121.12 44.6473C122.573 44.6473 123.73 45.7809 123.73 47.2654C123.73 48.7499 122.564 49.8834 121.12 49.8834C119.675 49.8834 118.501 48.7499 118.501 47.2654ZM123.221 47.2654C123.221 46.0712 122.305 45.1287 121.12 45.1287C119.934 45.1287 119.008 46.0712 119.008 47.2654C119.008 48.4596 119.934 49.4021 121.12 49.4021C122.305 49.4021 123.221 48.4596 123.221 47.2654Z" fill="black"/>
<path d="M129.137 46.6536V49.7732H128.628V46.6536C128.628 45.7313 128.101 45.1287 127.164 45.1287C126.226 45.1287 125.42 45.7717 125.42 47.1258V49.775H124.922V44.7576H125.42V45.7111C125.798 44.9689 126.436 44.6473 127.204 44.6473C128.389 44.6473 129.135 45.4392 129.135 46.6536H129.137Z" fill="black"/>
<path d="M130.392 43.1408C130.392 42.9296 130.571 42.7495 130.79 42.7495C131.009 42.7495 131.188 42.9296 131.188 43.1408C131.188 43.3521 131.009 43.5414 130.79 43.5414C130.571 43.5414 130.392 43.3613 130.392 43.1408ZM130.542 44.7576H131.04V49.7751H130.542V44.7576Z" fill="black"/>
<path d="M133.639 45.2482V48.5093C133.639 49.393 134.108 49.4114 135.123 49.3213V49.7733C133.819 49.9735 133.132 49.652 133.132 48.5093V45.2482H132.036V44.7558H133.132V43.501L133.641 43.3503V44.7558H135.125V45.2482H133.641H133.639Z" fill="black"/>
<path d="M135.681 47.2654C135.681 45.7809 136.847 44.6473 138.3 44.6473C139.754 44.6473 140.91 45.7809 140.91 47.2654C140.91 48.7499 139.745 49.8834 138.3 49.8834C136.856 49.8834 135.681 48.7499 135.681 47.2654ZM140.401 47.2654C140.401 46.0712 139.486 45.1287 138.3 45.1287C137.115 45.1287 136.188 46.0712 136.188 47.2654C136.188 48.4596 137.115 49.4021 138.3 49.4021C139.486 49.4021 140.401 48.4596 140.401 47.2654Z" fill="black"/>
<path d="M144.266 44.6859V45.1673C143.409 45.1673 142.603 45.6982 142.603 46.9825V49.7714H142.105V44.7539H142.603V45.7368C142.942 44.945 143.589 44.6823 144.266 44.6823V44.6859Z" fill="black"/>
<path d="M161.793 49.7732H161.266V43.5322L158.687 47.846H158.597L156.019 43.5322V49.7732H155.491V42.7495H156.148L158.638 46.9035L161.127 42.7495H161.795V49.7732H161.793Z" fill="black"/>
<path d="M163.277 43.1408C163.277 42.9296 163.456 42.7495 163.675 42.7495C163.894 42.7495 164.073 42.9296 164.073 43.1408C164.073 43.3521 163.894 43.5414 163.675 43.5414C163.456 43.5414 163.277 43.3613 163.277 43.1408ZM163.427 44.7576H163.925V49.7751H163.427V44.7576Z" fill="black"/>
<path d="M166.524 45.2482V48.5093C166.524 49.393 166.993 49.4114 168.008 49.3213V49.7733C166.704 49.9735 166.017 49.652 166.017 48.5093V45.2482H164.921V44.7558H166.017V43.501L166.526 43.3503V44.7558H168.01V45.2482H166.526H166.524Z" fill="black"/>
<path d="M169.053 43.1408C169.053 42.9296 169.232 42.7495 169.451 42.7495C169.67 42.7495 169.849 42.9296 169.849 43.1408C169.849 43.3521 169.67 43.5414 169.451 43.5414C169.232 43.5414 169.053 43.3613 169.053 43.1408ZM169.203 44.7576H169.701V49.7751H169.203V44.7576Z" fill="black"/>
<path d="M176.155 44.7576V49.5325C176.155 51.0372 175.05 51.8897 173.675 51.8897C172.51 51.8897 171.683 51.4175 171.324 50.6863L171.762 50.4364C172.021 50.9674 172.579 51.4102 173.675 51.4102C174.921 51.4102 175.658 50.6771 175.658 49.5344V48.6121C175.249 49.3837 174.483 49.8871 173.516 49.8871C172.092 49.8871 170.938 48.7535 170.938 47.2691C170.938 45.7846 172.092 44.651 173.516 44.651C174.483 44.651 175.249 45.1526 175.658 45.926V44.7631H176.155V44.7576ZM175.658 47.2654C175.658 46.0712 174.731 45.1287 173.546 45.1287C172.36 45.1287 171.434 46.0712 171.434 47.2654C171.434 48.4596 172.36 49.4021 173.546 49.4021C174.731 49.4021 175.658 48.4596 175.658 47.2654Z" fill="black"/>
<path d="M182.581 44.7576V49.775H182.072V48.6415C181.654 49.3947 180.886 49.8853 179.931 49.8853C178.517 49.8853 177.352 48.7517 177.352 47.2672C177.352 45.7827 178.517 44.6492 179.931 44.6492C180.886 44.6492 181.654 45.1415 182.072 45.893V44.7594H182.581V44.7576ZM182.072 47.2654C182.072 46.0712 181.156 45.1287 179.971 45.1287C178.785 45.1287 177.859 46.0712 177.859 47.2654C177.859 48.4596 178.785 49.4021 179.971 49.4021C181.156 49.4021 182.072 48.4596 182.072 47.2654Z" fill="black"/>
<path d="M185.18 45.2482V48.5093C185.18 49.393 185.648 49.4114 186.664 49.3213V49.7733C185.36 49.9735 184.673 49.652 184.673 48.5093V45.2482H183.576V44.7558H184.673V43.501L185.181 43.3503V44.7558H186.666V45.2482H185.181H185.18Z" fill="black"/>
<path d="M192.262 47.2856C192.262 47.3664 192.252 47.4454 192.252 47.5263H187.74C187.861 48.6598 188.716 49.4021 189.852 49.4021C190.669 49.4021 191.286 49.0218 191.576 48.489L192.014 48.7499C191.605 49.4315 190.828 49.8834 189.841 49.8834C188.308 49.8834 187.222 48.7793 187.222 47.2654C187.222 45.7515 188.278 44.6473 189.801 44.6473C191.324 44.6473 192.262 45.9114 192.262 47.2856ZM187.739 47.0339H191.742C191.632 45.8103 190.775 45.1269 189.799 45.1269C188.663 45.1269 187.837 45.9187 187.737 47.0339H187.739Z" fill="black"/>
<path d="M105.473 43.8427H105.105V49.9735H105.473V43.8427Z" fill="url(#paint8_linear_386_119)"/>
<path d="M150.062 43.8427H149.694V49.9735H150.062V43.8427Z" fill="url(#paint9_linear_386_119)"/>
<path d="M68.4241 49.7732H67.897V43.5322L65.3181 47.846H65.2288L62.6499 43.5322V49.7732H62.1228V42.7495H62.7794L65.2689 46.9035L67.7584 42.7495H68.4259V49.7732H68.4241Z" fill="url(#paint10_linear_386_119)"/>
<path d="M74.9479 44.7577V49.7752H74.439V48.6416C74.0214 49.3949 73.2536 49.8854 72.2979 49.8854C70.8844 49.8854 69.719 48.7518 69.719 47.2673C69.719 45.7829 70.8844 44.6493 72.2979 44.6493C73.2536 44.6493 74.0214 45.1417 74.439 45.8931V44.7595H74.9479V44.7577ZM74.439 47.2655C74.439 46.0713 73.5235 45.1288 72.338 45.1288C71.1525 45.1288 70.226 46.0713 70.226 47.2655C70.226 48.4597 71.1525 49.4022 72.338 49.4022C73.5235 49.4022 74.439 48.4597 74.439 47.2655Z" fill="url(#paint11_linear_386_119)"/>
<path d="M80.6948 46.6536V49.7732H80.186V46.6536C80.186 45.7313 79.6589 45.1287 78.7215 45.1287C77.784 45.1287 76.9779 45.7717 76.9779 47.1258V49.775H76.48V44.7576H76.9779V45.7111C77.3572 44.9689 77.9938 44.6473 78.7616 44.6473C79.9471 44.6473 80.693 45.4392 80.693 46.6536H80.6948Z" fill="url(#paint12_linear_386_119)"/>
<path d="M86.9887 44.7577V49.7752H86.4798V48.6416C86.0622 49.3949 85.2943 49.8854 84.3386 49.8854C82.9252 49.8854 81.7598 48.7518 81.7598 47.2673C81.7598 45.7829 82.9252 44.6493 84.3386 44.6493C85.2943 44.6493 86.0622 45.1417 86.4798 45.8931V44.7595H86.9887V44.7577ZM86.4816 47.2655C86.4816 46.0713 85.5661 45.1288 84.3806 45.1288C83.1951 45.1288 82.2686 46.0713 82.2686 47.2655C82.2686 48.4597 83.1951 49.4022 84.3806 49.4022C85.5661 49.4022 86.4816 48.4597 86.4816 47.2655Z" fill="url(#paint13_linear_386_119)"/>
<path d="M93.4433 44.7576V49.5325C93.4433 51.0372 92.3381 51.8897 90.9629 51.8897C89.7975 51.8897 88.9713 51.4175 88.612 50.6863L89.0497 50.4364C89.3087 50.9674 89.8668 51.4102 90.9629 51.4102C92.2086 51.4102 92.9454 50.6771 92.9454 49.5344V48.6121C92.5369 49.3837 91.7708 49.8871 90.8042 49.8871C89.3798 49.8871 88.2253 48.7535 88.2253 47.2691C88.2253 45.7846 89.3798 44.651 90.8042 44.651C91.7708 44.651 92.5369 45.1526 92.9454 45.926V44.7631H93.4433V44.7576ZM92.9454 47.2654C92.9454 46.0712 92.0189 45.1287 90.8334 45.1287C89.6479 45.1287 88.7214 46.0712 88.7214 47.2654C88.7214 48.4596 89.6479 49.4021 90.8334 49.4021C92.0189 49.4021 92.9454 48.4596 92.9454 47.2654Z" fill="url(#paint14_linear_386_119)"/>
<path d="M99.6789 47.2856C99.6789 47.3664 99.6697 47.4454 99.6697 47.5263H95.1576C95.278 48.6598 96.1334 49.4021 97.2696 49.4021C98.0867 49.4021 98.7031 49.0218 98.9931 48.489L99.4308 48.7499C99.0223 49.4315 98.2453 49.8834 97.2587 49.8834C95.7248 49.8834 94.6396 48.7793 94.6396 47.2654C94.6396 45.7515 95.6956 44.6473 97.2185 44.6473C98.7414 44.6473 99.6789 45.9114 99.6789 47.2856ZM95.1558 47.0339H99.1591C99.0496 45.8103 98.1924 45.1269 97.2167 45.1269C96.0805 45.1269 95.2543 45.9187 95.154 47.0339H95.1558Z" fill="url(#paint15_linear_386_119)"/>
<path d="M117.206 49.7732H116.679V43.5322L114.1 47.846H114.01L111.432 43.5322V49.7732H110.905V42.7495H111.561L114.051 46.9035L116.54 42.7495H117.208V49.7732H117.206Z" fill="url(#paint16_linear_386_119)"/>
<path d="M118.501 47.2654C118.501 45.7809 119.666 44.6473 121.12 44.6473C122.573 44.6473 123.73 45.7809 123.73 47.2654C123.73 48.7499 122.564 49.8834 121.12 49.8834C119.675 49.8834 118.501 48.7499 118.501 47.2654ZM123.221 47.2654C123.221 46.0712 122.305 45.1287 121.12 45.1287C119.934 45.1287 119.008 46.0712 119.008 47.2654C119.008 48.4596 119.934 49.4021 121.12 49.4021C122.305 49.4021 123.221 48.4596 123.221 47.2654Z" fill="url(#paint17_linear_386_119)"/>
<path d="M129.137 46.6536V49.7732H128.628V46.6536C128.628 45.7313 128.101 45.1287 127.164 45.1287C126.226 45.1287 125.42 45.7717 125.42 47.1258V49.775H124.922V44.7576H125.42V45.7111C125.798 44.9689 126.436 44.6473 127.204 44.6473C128.389 44.6473 129.135 45.4392 129.135 46.6536H129.137Z" fill="url(#paint18_linear_386_119)"/>
<path d="M130.392 43.1408C130.392 42.9296 130.571 42.7495 130.79 42.7495C131.009 42.7495 131.188 42.9296 131.188 43.1408C131.188 43.3521 131.009 43.5414 130.79 43.5414C130.571 43.5414 130.392 43.3613 130.392 43.1408ZM130.542 44.7576H131.04V49.7751H130.542V44.7576Z" fill="url(#paint19_linear_386_119)"/>
<path d="M133.639 45.2482V48.5093C133.639 49.393 134.108 49.4114 135.123 49.3213V49.7733C133.819 49.9735 133.132 49.652 133.132 48.5093V45.2482H132.036V44.7558H133.132V43.501L133.641 43.3503V44.7558H135.125V45.2482H133.641H133.639Z" fill="url(#paint20_linear_386_119)"/>
<path d="M135.681 47.2654C135.681 45.7809 136.847 44.6473 138.3 44.6473C139.754 44.6473 140.91 45.7809 140.91 47.2654C140.91 48.7499 139.745 49.8834 138.3 49.8834C136.856 49.8834 135.681 48.7499 135.681 47.2654ZM140.401 47.2654C140.401 46.0712 139.486 45.1287 138.3 45.1287C137.115 45.1287 136.188 46.0712 136.188 47.2654C136.188 48.4596 137.115 49.4021 138.3 49.4021C139.486 49.4021 140.401 48.4596 140.401 47.2654Z" fill="url(#paint21_linear_386_119)"/>
<path d="M144.266 44.6859V45.1673C143.409 45.1673 142.603 45.6982 142.603 46.9825V49.7714H142.105V44.7539H142.603V45.7368C142.942 44.945 143.589 44.6823 144.266 44.6823V44.6859Z" fill="url(#paint22_linear_386_119)"/>
<path d="M161.793 49.7732H161.266V43.5322L158.687 47.846H158.597L156.019 43.5322V49.7732H155.491V42.7495H156.148L158.638 46.9035L161.127 42.7495H161.795V49.7732H161.793Z" fill="url(#paint23_linear_386_119)"/>
<path d="M163.277 43.1408C163.277 42.9296 163.456 42.7495 163.675 42.7495C163.894 42.7495 164.073 42.9296 164.073 43.1408C164.073 43.3521 163.894 43.5414 163.675 43.5414C163.456 43.5414 163.277 43.3613 163.277 43.1408ZM163.427 44.7576H163.925V49.7751H163.427V44.7576Z" fill="url(#paint24_linear_386_119)"/>
<path d="M166.524 45.2482V48.5093C166.524 49.393 166.993 49.4114 168.008 49.3213V49.7733C166.704 49.9735 166.017 49.652 166.017 48.5093V45.2482H164.921V44.7558H166.017V43.501L166.526 43.3503V44.7558H168.01V45.2482H166.526H166.524Z" fill="url(#paint25_linear_386_119)"/>
<path d="M169.053 43.1408C169.053 42.9296 169.232 42.7495 169.451 42.7495C169.67 42.7495 169.849 42.9296 169.849 43.1408C169.849 43.3521 169.67 43.5414 169.451 43.5414C169.232 43.5414 169.053 43.3613 169.053 43.1408ZM169.203 44.7576H169.701V49.7751H169.203V44.7576Z" fill="url(#paint26_linear_386_119)"/>
<path d="M176.155 44.7576V49.5325C176.155 51.0372 175.05 51.8897 173.675 51.8897C172.51 51.8897 171.683 51.4175 171.324 50.6863L171.762 50.4364C172.021 50.9674 172.579 51.4102 173.675 51.4102C174.921 51.4102 175.658 50.6771 175.658 49.5344V48.6121C175.249 49.3837 174.483 49.8871 173.516 49.8871C172.092 49.8871 170.938 48.7535 170.938 47.2691C170.938 45.7846 172.092 44.651 173.516 44.651C174.483 44.651 175.249 45.1526 175.658 45.926V44.7631H176.155V44.7576ZM175.658 47.2654C175.658 46.0712 174.731 45.1287 173.546 45.1287C172.36 45.1287 171.434 46.0712 171.434 47.2654C171.434 48.4596 172.36 49.4021 173.546 49.4021C174.731 49.4021 175.658 48.4596 175.658 47.2654Z" fill="url(#paint27_linear_386_119)"/>
<path d="M182.581 44.7576V49.775H182.072V48.6415C181.654 49.3947 180.886 49.8853 179.931 49.8853C178.517 49.8853 177.352 48.7517 177.352 47.2672C177.352 45.7827 178.517 44.6492 179.931 44.6492C180.886 44.6492 181.654 45.1415 182.072 45.893V44.7594H182.581V44.7576ZM182.072 47.2654C182.072 46.0712 181.156 45.1287 179.971 45.1287C178.785 45.1287 177.859 46.0712 177.859 47.2654C177.859 48.4596 178.785 49.4021 179.971 49.4021C181.156 49.4021 182.072 48.4596 182.072 47.2654Z" fill="url(#paint28_linear_386_119)"/>
<path d="M185.18 45.2482V48.5093C185.18 49.393 185.648 49.4114 186.664 49.3213V49.7733C185.36 49.9735 184.673 49.652 184.673 48.5093V45.2482H183.576V44.7558H184.673V43.501L185.181 43.3503V44.7558H186.666V45.2482H185.181H185.18Z" fill="url(#paint29_linear_386_119)"/>
<path d="M192.262 47.2856C192.262 47.3664 192.252 47.4454 192.252 47.5263H187.74C187.861 48.6598 188.716 49.4021 189.852 49.4021C190.669 49.4021 191.286 49.0218 191.576 48.489L192.014 48.7499C191.605 49.4315 190.828 49.8834 189.841 49.8834C188.308 49.8834 187.222 48.7793 187.222 47.2654C187.222 45.7515 188.278 44.6473 189.801 44.6473C191.324 44.6473 192.262 45.9114 192.262 47.2856ZM187.739 47.0339H191.742C191.632 45.8103 190.775 45.1269 189.799 45.1269C188.663 45.1269 187.837 45.9187 187.737 47.0339H187.739Z" fill="url(#paint30_linear_386_119)"/>
<path d="M105.473 43.8427H105.105V49.9735H105.473V43.8427Z" fill="url(#paint31_linear_386_119)"/>
<path d="M150.062 43.8427H149.694V49.9735H150.062V43.8427Z" fill="url(#paint32_linear_386_119)"/>
<path d="M68.4241 49.7732H67.897V43.5322L65.3181 47.846H65.2288L62.6499 43.5322V49.7732H62.1228V42.7495H62.7794L65.2689 46.9035L67.7584 42.7495H68.4259V49.7732H68.4241Z" stroke="url(#paint33_linear_386_119)" stroke-width="0.529337" stroke-miterlimit="10"/>
<path d="M74.9479 44.7577V49.7752H74.439V48.6416C74.0214 49.3949 73.2536 49.8854 72.2979 49.8854C70.8844 49.8854 69.719 48.7518 69.719 47.2673C69.719 45.7829 70.8844 44.6493 72.2979 44.6493C73.2536 44.6493 74.0214 45.1417 74.439 45.8931V44.7595H74.9479V44.7577ZM74.439 47.2655C74.439 46.0713 73.5235 45.1288 72.338 45.1288C71.1525 45.1288 70.226 46.0713 70.226 47.2655C70.226 48.4597 71.1525 49.4022 72.338 49.4022C73.5235 49.4022 74.439 48.4597 74.439 47.2655Z" stroke="url(#paint34_linear_386_119)" stroke-width="0.529337" stroke-miterlimit="10"/>
<path d="M80.6948 46.6536V49.7732H80.186V46.6536C80.186 45.7313 79.6589 45.1287 78.7215 45.1287C77.784 45.1287 76.9779 45.7717 76.9779 47.1258V49.775H76.48V44.7576H76.9779V45.7111C77.3572 44.9689 77.9938 44.6473 78.7616 44.6473C79.9471 44.6473 80.693 45.4392 80.693 46.6536H80.6948Z" stroke="url(#paint35_linear_386_119)" stroke-width="0.529337" stroke-miterlimit="10"/>
<path d="M86.9887 44.7577V49.7752H86.4798V48.6416C86.0622 49.3949 85.2943 49.8854 84.3386 49.8854C82.9252 49.8854 81.7598 48.7518 81.7598 47.2673C81.7598 45.7829 82.9252 44.6493 84.3386 44.6493C85.2943 44.6493 86.0622 45.1417 86.4798 45.8931V44.7595H86.9887V44.7577ZM86.4816 47.2655C86.4816 46.0713 85.5661 45.1288 84.3806 45.1288C83.1951 45.1288 82.2686 46.0713 82.2686 47.2655C82.2686 48.4597 83.1951 49.4022 84.3806 49.4022C85.5661 49.4022 86.4816 48.4597 86.4816 47.2655Z" stroke="url(#paint36_linear_386_119)" stroke-width="0.529337" stroke-miterlimit="10"/>
<path d="M93.4433 44.7576V49.5325C93.4433 51.0372 92.3381 51.8897 90.9629 51.8897C89.7975 51.8897 88.9713 51.4175 88.612 50.6863L89.0497 50.4364C89.3087 50.9674 89.8668 51.4102 90.9629 51.4102C92.2086 51.4102 92.9454 50.6771 92.9454 49.5344V48.6121C92.5369 49.3837 91.7708 49.8871 90.8042 49.8871C89.3798 49.8871 88.2253 48.7535 88.2253 47.2691C88.2253 45.7846 89.3798 44.651 90.8042 44.651C91.7708 44.651 92.5369 45.1526 92.9454 45.926V44.7631H93.4433V44.7576ZM92.9454 47.2654C92.9454 46.0712 92.0189 45.1287 90.8334 45.1287C89.6479 45.1287 88.7214 46.0712 88.7214 47.2654C88.7214 48.4596 89.6479 49.4021 90.8334 49.4021C92.0189 49.4021 92.9454 48.4596 92.9454 47.2654Z" stroke="url(#paint37_linear_386_119)" stroke-width="0.529337" stroke-miterlimit="10"/>
<path d="M99.6789 47.2856C99.6789 47.3664 99.6697 47.4454 99.6697 47.5263H95.1576C95.278 48.6598 96.1334 49.4021 97.2696 49.4021C98.0867 49.4021 98.7031 49.0218 98.9931 48.489L99.4308 48.7499C99.0223 49.4315 98.2453 49.8834 97.2587 49.8834C95.7248 49.8834 94.6396 48.7793 94.6396 47.2654C94.6396 45.7515 95.6956 44.6473 97.2185 44.6473C98.7414 44.6473 99.6789 45.9114 99.6789 47.2856ZM95.1558 47.0339H99.1591C99.0496 45.8103 98.1924 45.1269 97.2167 45.1269C96.0805 45.1269 95.2543 45.9187 95.154 47.0339H95.1558Z" stroke="url(#paint38_linear_386_119)" stroke-width="0.529337" stroke-miterlimit="10"/>
<path d="M117.206 49.7732H116.679V43.5322L114.1 47.846H114.01L111.432 43.5322V49.7732H110.905V42.7495H111.561L114.051 46.9035L116.54 42.7495H117.208V49.7732H117.206Z" stroke="url(#paint39_linear_386_119)" stroke-width="0.529337" stroke-miterlimit="10"/>
<path d="M118.501 47.2654C118.501 45.7809 119.666 44.6473 121.12 44.6473C122.573 44.6473 123.73 45.7809 123.73 47.2654C123.73 48.7499 122.564 49.8834 121.12 49.8834C119.675 49.8834 118.501 48.7499 118.501 47.2654ZM123.221 47.2654C123.221 46.0712 122.305 45.1287 121.12 45.1287C119.934 45.1287 119.008 46.0712 119.008 47.2654C119.008 48.4596 119.934 49.4021 121.12 49.4021C122.305 49.4021 123.221 48.4596 123.221 47.2654Z" stroke="url(#paint40_linear_386_119)" stroke-width="0.529337" stroke-miterlimit="10"/>
<path d="M129.137 46.6536V49.7732H128.628V46.6536C128.628 45.7313 128.101 45.1287 127.164 45.1287C126.226 45.1287 125.42 45.7717 125.42 47.1258V49.775H124.922V44.7576H125.42V45.7111C125.798 44.9689 126.436 44.6473 127.204 44.6473C128.389 44.6473 129.135 45.4392 129.135 46.6536H129.137Z" stroke="url(#paint41_linear_386_119)" stroke-width="0.529337" stroke-miterlimit="10"/>
<path d="M130.392 43.1408C130.392 42.9296 130.571 42.7495 130.79 42.7495C131.009 42.7495 131.188 42.9296 131.188 43.1408C131.188 43.3521 131.009 43.5414 130.79 43.5414C130.571 43.5414 130.392 43.3613 130.392 43.1408ZM130.542 44.7576H131.04V49.7751H130.542V44.7576Z" stroke="url(#paint42_linear_386_119)" stroke-width="0.529337" stroke-miterlimit="10"/>
<path d="M133.639 45.2482V48.5093C133.639 49.393 134.108 49.4114 135.123 49.3213V49.7733C133.819 49.9735 133.132 49.652 133.132 48.5093V45.2482H132.036V44.7558H133.132V43.501L133.641 43.3503V44.7558H135.125V45.2482H133.641H133.639Z" stroke="url(#paint43_linear_386_119)" stroke-width="0.529337" stroke-miterlimit="10"/>
<path d="M135.681 47.2654C135.681 45.7809 136.847 44.6473 138.3 44.6473C139.754 44.6473 140.91 45.7809 140.91 47.2654C140.91 48.7499 139.745 49.8834 138.3 49.8834C136.856 49.8834 135.681 48.7499 135.681 47.2654ZM140.401 47.2654C140.401 46.0712 139.486 45.1287 138.3 45.1287C137.115 45.1287 136.188 46.0712 136.188 47.2654C136.188 48.4596 137.115 49.4021 138.3 49.4021C139.486 49.4021 140.401 48.4596 140.401 47.2654Z" stroke="url(#paint44_linear_386_119)" stroke-width="0.529337" stroke-miterlimit="10"/>
<path d="M144.266 44.6859V45.1673C143.409 45.1673 142.603 45.6982 142.603 46.9825V49.7714H142.105V44.7539H142.603V45.7368C142.942 44.945 143.589 44.6823 144.266 44.6823V44.6859Z" stroke="url(#paint45_linear_386_119)" stroke-width="0.529337" stroke-miterlimit="10"/>
<path d="M161.793 49.7732H161.266V43.5322L158.687 47.846H158.597L156.019 43.5322V49.7732H155.491V42.7495H156.148L158.638 46.9035L161.127 42.7495H161.795V49.7732H161.793Z" stroke="url(#paint46_linear_386_119)" stroke-width="0.529337" stroke-miterlimit="10"/>
<path d="M163.277 43.1408C163.277 42.9296 163.456 42.7495 163.675 42.7495C163.894 42.7495 164.073 42.9296 164.073 43.1408C164.073 43.3521 163.894 43.5414 163.675 43.5414C163.456 43.5414 163.277 43.3613 163.277 43.1408ZM163.427 44.7576H163.925V49.7751H163.427V44.7576Z" stroke="url(#paint47_linear_386_119)" stroke-width="0.529337" stroke-miterlimit="10"/>
<path d="M166.524 45.2482V48.5093C166.524 49.393 166.993 49.4114 168.008 49.3213V49.7733C166.704 49.9735 166.017 49.652 166.017 48.5093V45.2482H164.921V44.7558H166.017V43.501L166.526 43.3503V44.7558H168.01V45.2482H166.526H166.524Z" stroke="url(#paint48_linear_386_119)" stroke-width="0.529337" stroke-miterlimit="10"/>
<path d="M169.053 43.1408C169.053 42.9296 169.232 42.7495 169.451 42.7495C169.67 42.7495 169.849 42.9296 169.849 43.1408C169.849 43.3521 169.67 43.5414 169.451 43.5414C169.232 43.5414 169.053 43.3613 169.053 43.1408ZM169.203 44.7576H169.701V49.7751H169.203V44.7576Z" stroke="url(#paint49_linear_386_119)" stroke-width="0.529337" stroke-miterlimit="10"/>
<path d="M176.155 44.7576V49.5325C176.155 51.0372 175.05 51.8897 173.675 51.8897C172.51 51.8897 171.683 51.4175 171.324 50.6863L171.762 50.4364C172.021 50.9674 172.579 51.4102 173.675 51.4102C174.921 51.4102 175.658 50.6771 175.658 49.5344V48.6121C175.249 49.3837 174.483 49.8871 173.516 49.8871C172.092 49.8871 170.938 48.7535 170.938 47.2691C170.938 45.7846 172.092 44.651 173.516 44.651C174.483 44.651 175.249 45.1526 175.658 45.926V44.7631H176.155V44.7576ZM175.658 47.2654C175.658 46.0712 174.731 45.1287 173.546 45.1287C172.36 45.1287 171.434 46.0712 171.434 47.2654C171.434 48.4596 172.36 49.4021 173.546 49.4021C174.731 49.4021 175.658 48.4596 175.658 47.2654Z" stroke="url(#paint50_linear_386_119)" stroke-width="0.529337" stroke-miterlimit="10"/>
<path d="M182.581 44.7576V49.775H182.072V48.6415C181.654 49.3947 180.886 49.8853 179.931 49.8853C178.517 49.8853 177.352 48.7517 177.352 47.2672C177.352 45.7827 178.517 44.6492 179.931 44.6492C180.886 44.6492 181.654 45.1415 182.072 45.893V44.7594H182.581V44.7576ZM182.072 47.2654C182.072 46.0712 181.156 45.1287 179.971 45.1287C178.785 45.1287 177.859 46.0712 177.859 47.2654C177.859 48.4596 178.785 49.4021 179.971 49.4021C181.156 49.4021 182.072 48.4596 182.072 47.2654Z" stroke="url(#paint51_linear_386_119)" stroke-width="0.529337" stroke-miterlimit="10"/>
<path d="M185.18 45.2482V48.5093C185.18 49.393 185.648 49.4114 186.664 49.3213V49.7733C185.36 49.9735 184.673 49.652 184.673 48.5093V45.2482H183.576V44.7558H184.673V43.501L185.181 43.3503V44.7558H186.666V45.2482H185.181H185.18Z" stroke="url(#paint52_linear_386_119)" stroke-width="0.529337" stroke-miterlimit="10"/>
<path d="M192.262 47.2856C192.262 47.3664 192.252 47.4454 192.252 47.5263H187.74C187.861 48.6598 188.716 49.4021 189.852 49.4021C190.669 49.4021 191.286 49.0218 191.576 48.489L192.014 48.7499C191.605 49.4315 190.828 49.8834 189.841 49.8834C188.308 49.8834 187.222 48.7793 187.222 47.2654C187.222 45.7515 188.278 44.6473 189.801 44.6473C191.324 44.6473 192.262 45.9114 192.262 47.2856ZM187.739 47.0339H191.742C191.632 45.8103 190.775 45.1269 189.799 45.1269C188.663 45.1269 187.837 45.9187 187.737 47.0339H187.739Z" stroke="url(#paint53_linear_386_119)" stroke-width="0.529337" stroke-miterlimit="10"/>
<path d="M105.473 43.8427H105.105V49.9735H105.473V43.8427Z" stroke="url(#paint54_linear_386_119)" stroke-width="0.529337" stroke-miterlimit="10"/>
<path d="M150.062 43.8427H149.694V49.9735H150.062V43.8427Z" stroke="url(#paint55_linear_386_119)" stroke-width="0.529337" stroke-miterlimit="10"/>
</g>
</g>
<rect x="248.938" y="0.2125" width="9.22806" height="9.22806" rx="4.61403" stroke="#232323" stroke-width="0.3"/>
<path d="M253.011 3.66431V3.91108H252.377V5.98868H252.073V3.91108H251.437V3.66431H253.011Z" fill="#232323" stroke="#232323" stroke-width="0.2"/>
<path d="M255.668 3.67273V5.98043H255.365V4.25966L254.598 5.98043H254.384L253.614 4.25632V5.98043H253.311V3.67273H253.637L254.491 5.58025L255.345 3.67273H255.668Z" fill="#232323" stroke="#232323" stroke-width="0.2"/>
<defs>
<linearGradient id="paint0_linear_386_119" x1="73.8245" y1="14.763" x2="107.279" y2="14.763" gradientUnits="userSpaceOnUse">
<stop stop-color="#88C43F" stop-opacity="0.63"/>
<stop offset="1" stop-color="#229133"/>
</linearGradient>
<linearGradient id="paint1_linear_386_119" x1="-9.38081e-05" y1="19.0878" x2="111.452" y2="19.0878" gradientUnits="userSpaceOnUse">
<stop stop-color="#88C43F" stop-opacity="0.63"/>
<stop offset="1" stop-color="#229133"/>
</linearGradient>
<linearGradient id="paint2_linear_386_119" x1="62.1192" y1="46.2623" x2="68.4241" y2="46.2623" gradientUnits="userSpaceOnUse">
<stop stop-color="#BDC43F" stop-opacity="0.63"/>
<stop offset="1" stop-color="#339734" stop-opacity="0.98"/>
</linearGradient>
<linearGradient id="paint3_linear_386_119" x1="69.719" y1="47.2655" x2="74.9479" y2="47.2655" gradientUnits="userSpaceOnUse">
<stop stop-color="#BDC43F" stop-opacity="0.63"/>
<stop offset="1" stop-color="#339734" stop-opacity="0.98"/>
</linearGradient>
<linearGradient id="paint4_linear_386_119" x1="76.4818" y1="47.2103" x2="80.6948" y2="47.2103" gradientUnits="userSpaceOnUse">
<stop stop-color="#BDC43F" stop-opacity="0.63"/>
<stop offset="1" stop-color="#339734" stop-opacity="0.98"/>
</linearGradient>
<linearGradient id="paint5_linear_386_119" x1="81.7598" y1="47.2655" x2="86.9887" y2="47.2655" gradientUnits="userSpaceOnUse">
<stop stop-color="#BDC43F" stop-opacity="0.63"/>
<stop offset="1" stop-color="#339734" stop-opacity="0.98"/>
</linearGradient>
<linearGradient id="paint6_linear_386_119" x1="88.2235" y1="48.2685" x2="93.4433" y2="48.2685" gradientUnits="userSpaceOnUse">
<stop stop-color="#BDC43F" stop-opacity="0.63"/>
<stop offset="1" stop-color="#339734" stop-opacity="0.98"/>
</linearGradient>
<linearGradient id="paint7_linear_386_119" x1="94.6378" y1="47.2654" x2="99.6789" y2="47.2654" gradientUnits="userSpaceOnUse">
<stop stop-color="#BDC43F" stop-opacity="0.63"/>
<stop offset="1" stop-color="#339734" stop-opacity="0.98"/>
</linearGradient>
<linearGradient id="paint8_linear_386_119" x1="105.105" y1="46.909" x2="105.473" y2="46.909" gradientUnits="userSpaceOnUse">
<stop stop-color="#BDC43F" stop-opacity="0.63"/>
<stop offset="1" stop-color="#339734" stop-opacity="0.98"/>
</linearGradient>
<linearGradient id="paint9_linear_386_119" x1="149.694" y1="46.909" x2="150.062" y2="46.909" gradientUnits="userSpaceOnUse">
<stop stop-color="#BDC43F" stop-opacity="0.63"/>
<stop offset="1" stop-color="#339734" stop-opacity="0.98"/>
</linearGradient>
<linearGradient id="paint10_linear_386_119" x1="62.1192" y1="47.3205" x2="192.261" y2="47.3205" gradientUnits="userSpaceOnUse">
<stop stop-color="#229133"/>
<stop offset="1" stop-color="#BDC43F" stop-opacity="0.63"/>
</linearGradient>
<linearGradient id="paint11_linear_386_119" x1="62.1191" y1="47.3206" x2="192.261" y2="47.3206" gradientUnits="userSpaceOnUse">
<stop stop-color="#229133"/>
<stop offset="1" stop-color="#BDC43F" stop-opacity="0.63"/>
</linearGradient>
<linearGradient id="paint12_linear_386_119" x1="62.1192" y1="47.3205" x2="192.262" y2="47.3205" gradientUnits="userSpaceOnUse">
<stop stop-color="#229133"/>
<stop offset="1" stop-color="#BDC43F" stop-opacity="0.63"/>
</linearGradient>
<linearGradient id="paint13_linear_386_119" x1="62.1191" y1="47.3206" x2="192.261" y2="47.3206" gradientUnits="userSpaceOnUse">
<stop stop-color="#229133"/>
<stop offset="1" stop-color="#BDC43F" stop-opacity="0.63"/>
</linearGradient>
<linearGradient id="paint14_linear_386_119" x1="62.1192" y1="47.3205" x2="192.261" y2="47.3205" gradientUnits="userSpaceOnUse">
<stop stop-color="#229133"/>
<stop offset="1" stop-color="#BDC43F" stop-opacity="0.63"/>
</linearGradient>
<linearGradient id="paint15_linear_386_119" x1="62.1191" y1="47.3205" x2="192.261" y2="47.3205" gradientUnits="userSpaceOnUse">
<stop stop-color="#229133"/>
<stop offset="1" stop-color="#BDC43F" stop-opacity="0.63"/>
</linearGradient>
<linearGradient id="paint16_linear_386_119" x1="62.1192" y1="47.3205" x2="192.261" y2="47.3205" gradientUnits="userSpaceOnUse">
<stop stop-color="#229133"/>
<stop offset="1" stop-color="#BDC43F" stop-opacity="0.63"/>
</linearGradient>
<linearGradient id="paint17_linear_386_119" x1="62.1192" y1="47.3205" x2="192.261" y2="47.3205" gradientUnits="userSpaceOnUse">
<stop stop-color="#229133"/>
<stop offset="1" stop-color="#BDC43F" stop-opacity="0.63"/>
</linearGradient>
<linearGradient id="paint18_linear_386_119" x1="62.1192" y1="47.3205" x2="192.261" y2="47.3205" gradientUnits="userSpaceOnUse">
<stop stop-color="#229133"/>
<stop offset="1" stop-color="#BDC43F" stop-opacity="0.63"/>
</linearGradient>
<linearGradient id="paint19_linear_386_119" x1="62.1197" y1="47.3205" x2="192.262" y2="47.3205" gradientUnits="userSpaceOnUse">
<stop stop-color="#229133"/>
<stop offset="1" stop-color="#BDC43F" stop-opacity="0.63"/>
</linearGradient>
<linearGradient id="paint20_linear_386_119" x1="62.1195" y1="47.3206" x2="192.262" y2="47.3206" gradientUnits="userSpaceOnUse">
<stop stop-color="#229133"/>
<stop offset="1" stop-color="#BDC43F" stop-opacity="0.63"/>
</linearGradient>
<linearGradient id="paint21_linear_386_119" x1="62.1193" y1="47.3205" x2="192.261" y2="47.3205" gradientUnits="userSpaceOnUse">
<stop stop-color="#229133"/>
<stop offset="1" stop-color="#BDC43F" stop-opacity="0.63"/>
</linearGradient>
<linearGradient id="paint22_linear_386_119" x1="62.1191" y1="47.3205" x2="192.262" y2="47.3205" gradientUnits="userSpaceOnUse">
<stop stop-color="#229133"/>
<stop offset="1" stop-color="#BDC43F" stop-opacity="0.63"/>
</linearGradient>
<linearGradient id="paint23_linear_386_119" x1="62.1192" y1="47.3205" x2="192.261" y2="47.3205" gradientUnits="userSpaceOnUse">
<stop stop-color="#229133"/>
<stop offset="1" stop-color="#BDC43F" stop-opacity="0.63"/>
</linearGradient>
<linearGradient id="paint24_linear_386_119" x1="62.1195" y1="47.3205" x2="192.261" y2="47.3205" gradientUnits="userSpaceOnUse">
<stop stop-color="#229133"/>
<stop offset="1" stop-color="#BDC43F" stop-opacity="0.63"/>
</linearGradient>
<linearGradient id="paint25_linear_386_119" x1="62.1192" y1="47.3206" x2="192.262" y2="47.3206" gradientUnits="userSpaceOnUse">
<stop stop-color="#229133"/>
<stop offset="1" stop-color="#BDC43F" stop-opacity="0.63"/>
</linearGradient>
<linearGradient id="paint26_linear_386_119" x1="62.1182" y1="47.3205" x2="192.262" y2="47.3205" gradientUnits="userSpaceOnUse">
<stop stop-color="#229133"/>
<stop offset="1" stop-color="#BDC43F" stop-opacity="0.63"/>
</linearGradient>
<linearGradient id="paint27_linear_386_119" x1="62.1194" y1="47.3205" x2="192.262" y2="47.3205" gradientUnits="userSpaceOnUse">
<stop stop-color="#229133"/>
<stop offset="1" stop-color="#BDC43F" stop-opacity="0.63"/>
</linearGradient>
<linearGradient id="paint28_linear_386_119" x1="62.1191" y1="47.3205" x2="192.262" y2="47.3205" gradientUnits="userSpaceOnUse">
<stop stop-color="#229133"/>
<stop offset="1" stop-color="#BDC43F" stop-opacity="0.63"/>
</linearGradient>
<linearGradient id="paint29_linear_386_119" x1="62.1192" y1="47.3206" x2="192.261" y2="47.3206" gradientUnits="userSpaceOnUse">
<stop stop-color="#229133"/>
<stop offset="1" stop-color="#BDC43F" stop-opacity="0.63"/>
</linearGradient>
<linearGradient id="paint30_linear_386_119" x1="62.1193" y1="47.3205" x2="192.262" y2="47.3205" gradientUnits="userSpaceOnUse">
<stop stop-color="#229133"/>
<stop offset="1" stop-color="#BDC43F" stop-opacity="0.63"/>
</linearGradient>
<linearGradient id="paint31_linear_386_119" x1="62.1187" y1="47.3205" x2="192.262" y2="47.3205" gradientUnits="userSpaceOnUse">
<stop stop-color="#229133"/>
<stop offset="1" stop-color="#BDC43F" stop-opacity="0.63"/>
</linearGradient>
<linearGradient id="paint32_linear_386_119" x1="62.1211" y1="47.3205" x2="192.261" y2="47.3205" gradientUnits="userSpaceOnUse">
<stop stop-color="#229133"/>
<stop offset="1" stop-color="#BDC43F" stop-opacity="0.63"/>
</linearGradient>
<linearGradient id="paint33_linear_386_119" x1="62.1192" y1="47.3205" x2="192.261" y2="47.3205" gradientUnits="userSpaceOnUse">
<stop stop-color="#229133"/>
<stop offset="1" stop-color="#A8BD3D" stop-opacity="0.65"/>
</linearGradient>
<linearGradient id="paint34_linear_386_119" x1="62.1191" y1="47.3206" x2="192.261" y2="47.3206" gradientUnits="userSpaceOnUse">
<stop stop-color="#229133"/>
<stop offset="1" stop-color="#A8BD3D" stop-opacity="0.65"/>
</linearGradient>
<linearGradient id="paint35_linear_386_119" x1="62.1192" y1="47.3205" x2="192.262" y2="47.3205" gradientUnits="userSpaceOnUse">
<stop stop-color="#229133"/>
<stop offset="1" stop-color="#A8BD3D" stop-opacity="0.65"/>
</linearGradient>
<linearGradient id="paint36_linear_386_119" x1="62.1191" y1="47.3206" x2="192.261" y2="47.3206" gradientUnits="userSpaceOnUse">
<stop stop-color="#229133"/>
<stop offset="1" stop-color="#A8BD3D" stop-opacity="0.65"/>
</linearGradient>
<linearGradient id="paint37_linear_386_119" x1="62.1192" y1="47.3205" x2="192.261" y2="47.3205" gradientUnits="userSpaceOnUse">
<stop stop-color="#229133"/>
<stop offset="1" stop-color="#A8BD3D" stop-opacity="0.65"/>
</linearGradient>
<linearGradient id="paint38_linear_386_119" x1="62.1191" y1="47.3205" x2="192.261" y2="47.3205" gradientUnits="userSpaceOnUse">
<stop stop-color="#229133"/>
<stop offset="1" stop-color="#A8BD3D" stop-opacity="0.65"/>
</linearGradient>
<linearGradient id="paint39_linear_386_119" x1="62.1192" y1="47.3205" x2="192.261" y2="47.3205" gradientUnits="userSpaceOnUse">
<stop stop-color="#229133"/>
<stop offset="1" stop-color="#A8BD3D" stop-opacity="0.65"/>
</linearGradient>
<linearGradient id="paint40_linear_386_119" x1="62.1192" y1="47.3205" x2="192.261" y2="47.3205" gradientUnits="userSpaceOnUse">
<stop stop-color="#229133"/>
<stop offset="1" stop-color="#A8BD3D" stop-opacity="0.65"/>
</linearGradient>
<linearGradient id="paint41_linear_386_119" x1="62.1192" y1="47.3205" x2="192.261" y2="47.3205" gradientUnits="userSpaceOnUse">
<stop stop-color="#229133"/>
<stop offset="1" stop-color="#A8BD3D" stop-opacity="0.65"/>
</linearGradient>
<linearGradient id="paint42_linear_386_119" x1="62.1197" y1="47.3205" x2="192.262" y2="47.3205" gradientUnits="userSpaceOnUse">
<stop stop-color="#229133"/>
<stop offset="1" stop-color="#A8BD3D" stop-opacity="0.65"/>
</linearGradient>
<linearGradient id="paint43_linear_386_119" x1="62.1195" y1="47.3206" x2="192.262" y2="47.3206" gradientUnits="userSpaceOnUse">
<stop stop-color="#229133"/>
<stop offset="1" stop-color="#A8BD3D" stop-opacity="0.65"/>
</linearGradient>
<linearGradient id="paint44_linear_386_119" x1="62.1193" y1="47.3205" x2="192.261" y2="47.3205" gradientUnits="userSpaceOnUse">
<stop stop-color="#229133"/>
<stop offset="1" stop-color="#A8BD3D" stop-opacity="0.65"/>
</linearGradient>
<linearGradient id="paint45_linear_386_119" x1="62.1191" y1="47.3205" x2="192.262" y2="47.3205" gradientUnits="userSpaceOnUse">
<stop stop-color="#229133"/>
<stop offset="1" stop-color="#A8BD3D" stop-opacity="0.65"/>
</linearGradient>
<linearGradient id="paint46_linear_386_119" x1="62.1192" y1="47.3205" x2="192.261" y2="47.3205" gradientUnits="userSpaceOnUse">
<stop stop-color="#229133"/>
<stop offset="1" stop-color="#A8BD3D" stop-opacity="0.65"/>
</linearGradient>
<linearGradient id="paint47_linear_386_119" x1="62.1195" y1="47.3205" x2="192.261" y2="47.3205" gradientUnits="userSpaceOnUse">
<stop stop-color="#229133"/>
<stop offset="1" stop-color="#A8BD3D" stop-opacity="0.65"/>
</linearGradient>
<linearGradient id="paint48_linear_386_119" x1="62.1192" y1="47.3206" x2="192.262" y2="47.3206" gradientUnits="userSpaceOnUse">
<stop stop-color="#229133"/>
<stop offset="1" stop-color="#A8BD3D" stop-opacity="0.65"/>
</linearGradient>
<linearGradient id="paint49_linear_386_119" x1="62.1182" y1="47.3205" x2="192.262" y2="47.3205" gradientUnits="userSpaceOnUse">
<stop stop-color="#229133"/>
<stop offset="1" stop-color="#A8BD3D" stop-opacity="0.65"/>
</linearGradient>
<linearGradient id="paint50_linear_386_119" x1="62.1194" y1="47.3205" x2="192.262" y2="47.3205" gradientUnits="userSpaceOnUse">
<stop stop-color="#229133"/>
<stop offset="1" stop-color="#A8BD3D" stop-opacity="0.65"/>
</linearGradient>
<linearGradient id="paint51_linear_386_119" x1="62.1191" y1="47.3205" x2="192.262" y2="47.3205" gradientUnits="userSpaceOnUse">
<stop stop-color="#229133"/>
<stop offset="1" stop-color="#A8BD3D" stop-opacity="0.65"/>
</linearGradient>
<linearGradient id="paint52_linear_386_119" x1="62.1192" y1="47.3206" x2="192.261" y2="47.3206" gradientUnits="userSpaceOnUse">
<stop stop-color="#229133"/>
<stop offset="1" stop-color="#A8BD3D" stop-opacity="0.65"/>
</linearGradient>
<linearGradient id="paint53_linear_386_119" x1="62.1193" y1="47.3205" x2="192.262" y2="47.3205" gradientUnits="userSpaceOnUse">
<stop stop-color="#229133"/>
<stop offset="1" stop-color="#A8BD3D" stop-opacity="0.65"/>
</linearGradient>
<linearGradient id="paint54_linear_386_119" x1="62.1187" y1="47.3205" x2="192.262" y2="47.3205" gradientUnits="userSpaceOnUse">
<stop stop-color="#229133"/>
<stop offset="1" stop-color="#A8BD3D" stop-opacity="0.65"/>
</linearGradient>
<linearGradient id="paint55_linear_386_119" x1="62.1211" y1="47.3205" x2="192.261" y2="47.3205" gradientUnits="userSpaceOnUse">
<stop stop-color="#229133"/>
<stop offset="1" stop-color="#A8BD3D" stop-opacity="0.65"/>
</linearGradient>
<clipPath id="clip0_386_119">
<rect width="251.964" height="49.7576" fill="white" transform="translate(0 2.17981)"/>
</clipPath>
<clipPath id="clip1_386_119">
<rect width="251.964" height="49.7576" fill="white" transform="translate(0 2.17981)"/>
</clipPath>
</defs>
</svg>
